<?xml version="1.0" encoding="utf-8"?>
<!-- Generator: Adobe Illustrator 24.1.2, SVG Export Plug-In . SVG Version: 6.00 Build 0)  -->
<svg version="1.1" id="Layer_1" xmlns="http://www.w3.org/2000/svg" xmlns:xlink="http://www.w3.org/1999/xlink" x="0px" y="0px"
	 viewBox="0 0 649 137.1" style="enable-background:new 0 0 649 137.1;" xml:space="preserve">
<style type="text/css">
	.st0{fill:#DAA520;}
	.st1{fill:#2F1276;}
	.st2{fill:#056C5B;}
</style>
<g id="Layer_1_2_">
	<g id="Layer_1_1_">
		<path class="st0" d="M135.3,111.6v22.6c0.1,1.2-0.6,2.3-1.5,2.4H39.6c-0.9-0.1-1.5-1.2-1.5-2.4v-22.6c0-0.5,0.1-1,0.3-1.5
			c0.2-0.6,0.7-1,1.2-1h94.3C134.7,109.3,135.4,110.4,135.3,111.6z"/>
		<path class="st0" d="M135.3,4.5V27c0.1,1.3-0.6,2.4-1.5,2.5H40.5c-0.1,0-0.2,0-0.3-0.1C39.5,29.1,39,28.1,39,27V4.5
			c0-1.1,0.4-2,1.1-2.4l0,0c0.1,0,0.1,0,0.2,0C40.4,2,40.4,2,40.5,2h93.4C134.7,2.1,135.4,3.2,135.3,4.5L135.3,4.5z"/>
		<path class="st0" d="M41.4,81.7v-26c0-0.4,0.2-0.8,0.5-0.8h95.3c0.3,0,0.5,0.3,0.5,0.8v26c0,0.4-0.2,0.8-0.5,0.8H42
			C41.7,82.5,41.4,82.1,41.4,81.7z"/>
		<path class="st0" d="M39.3,125.7l-0.2-0.1l-0.5-0.2v0.1L39.3,125.7z"/>
		<path class="st0" d="M47.5,5.9c0.1,1.4-0.9,2.9-2.8,4.1v9.6c9.2-9.5,21.2-15.2,34.2-15.2c1.3,0,2.5,0.1,3.8,0.2
			c-1.1-0.9-2.2-1.7-3.3-2.5H44.7v1C46.3,3.7,47.3,4.6,47.5,5.9z"/>
		<path class="st0" d="M44.7,10v9.6c-1.9,2-3.7,4.1-5.3,6.4c-0.1,0.1-0.2,0.2-0.3,0.3V12.4c0.1,0,0.2-0.1,0.3-0.1
			C41.2,11.8,43,11,44.7,10z"/>
		<path class="st0" d="M39.3,125.7l0.2,0.1l0,0c1.9,0.9,3.7,2.2,5.2,3.7v-11.8c-2-2.1-3.9-4.3-5.6-6.7v14.6L39.3,125.7z"/>
		<path class="st0" d="M39.1,12.4v13.9c-8.2,11.3-13.3,26.1-13.3,42.4c-0.1,14.8,4.3,29.3,12.7,41.5c0.2,0.3,0.4,0.6,0.6,0.8v14.6
			c-0.2-0.1-0.3-0.2-0.5-0.3l-0.1-2.1c-0.1,0-0.3-0.1-0.4-0.1l-1.1-0.4c-6.3-2-12.1-1.3-12.9,1.6c-0.4,1.4,0.6,3.2,2.5,4.8
			c0.3,0.6,0.7,1.1,1.1,1.6C12.4,117.8,2.1,94.4,2.1,67.6c0-22.5,7.3-42.6,18.7-56.1c-0.5,0.9-0.9,1.9-1.3,2.8
			c-0.2,0.7-0.2,1.5,0.1,2.2c1.3,2.6,6.9,1.6,12.5-2.2c0.3-0.2,0.6-0.5,0.9-0.7c0.1-0.1,0.3-0.2,0.4-0.4c0.9,0,1.9-0.1,2.9-0.2
			C37.2,12.8,38.2,12.6,39.1,12.4z"/>
		<path class="st0" d="M40.2,109.1c-0.7,0-1.3,0.4-1.7,1c-8.4-12.2-12.8-26.7-12.7-41.5c0-16.3,5-31.1,13.3-42.4
			c0.1-0.1,0.2-0.2,0.3-0.3V27c-0.1,1.1,0.6,2,1.6,2.4c-5.4,11.8-8.4,24.5-8.8,37.4C31.6,81.4,34.3,95.8,40.2,109.1z"/>
		<path class="st0" d="M44.7,2.1h-4.1C42,2.2,43.4,2.5,44.7,3V2.1z"/>
		<path class="st0" d="M39.1,2c-0.8,0-1.5,0-2.3,0.1L39.1,2L39.1,2z"/>
		<path class="st0" d="M33.4,13.2c1,0,1.9-0.1,2.9-0.2s1.9-0.3,2.8-0.6V2.1h-2.3c-0.5,0-1.1,0.1-1.7,0.2c-1.4,0.2-2.7,0.5-4,0.9
			l3.3,9.3C34.1,12.7,33.7,12.9,33.4,13.2z"/>
		<path class="st0" d="M33.4,13.2c1,0,1.9-0.1,2.9-0.2s1.9-0.3,2.8-0.6V2.1h-2.3c-0.5,0-1.1,0.1-1.7,0.2c-1.4,0.2-2.7,0.5-4,0.9
			l3.3,9.3C34.1,12.7,33.7,12.9,33.4,13.2z"/>
		<path class="st0" d="M19.5,16.5c1.3,2.6,6.9,1.6,12.6-2.2c0.5-0.3,0.9-0.7,1.4-1c-5.2,0.2-9.2-1.4-9.4-3.9c0-0.7,0.2-1.4,0.6-2
			c-1.3,1.3-2.6,2.7-3.8,4.2c-0.5,0.9-0.9,1.9-1.4,2.8C19.2,15,19.2,15.8,19.5,16.5z"/>
		<path class="st0" d="M19.5,16.5c1.3,2.6,6.9,1.6,12.6-2.2c0.5-0.3,0.9-0.7,1.4-1c-5.2,0.2-9.2-1.4-9.4-3.9c0-0.7,0.2-1.4,0.6-2
			c-1.3,1.3-2.6,2.7-3.8,4.2c-0.5,0.9-0.9,1.9-1.4,2.8C19.2,15,19.2,15.8,19.5,16.5z"/>
		<path class="st0" d="M26.1,5.8c-0.5,0.5-1.1,1-1.6,1.5c-0.4,0.6-0.6,1.3-0.6,2c0.3,2.5,4.3,4,9.4,3.9c0.3-0.3,0.7-0.5,1-0.8
			L31,3.1c-0.8,0.3-1.7,0.6-2.5,0.9c-0.4,0.2-0.8,0.5-1.2,0.8S26.6,5.5,26.1,5.8z"/>
		<path class="st0" d="M26.1,5.8c-0.5,0.5-1.1,1-1.6,1.5c-0.4,0.6-0.6,1.3-0.6,2c0.3,2.5,4.3,4,9.4,3.9c0.3-0.3,0.7-0.5,1-0.8
			L31,3.1c-0.8,0.3-1.7,0.6-2.5,0.9c-0.4,0.2-0.8,0.5-1.2,0.8S26.6,5.5,26.1,5.8z"/>
		<path class="st0" d="M40.6,2.1c-0.5,0-1-0.1-1.5-0.1v0.1H40.6z"/>
		<path class="st0" d="M47.5,5.9c-0.1-1.2-1.2-2.2-2.8-2.9v7C46.5,8.7,47.6,7.3,47.5,5.9z"/>
		<path class="st0" d="M47.5,5.9c-0.1-1.2-1.2-2.2-2.8-2.9v7C46.5,8.7,47.6,7.3,47.5,5.9z"/>
		<path class="st0" d="M39.1,12.4c2-0.5,3.9-1.3,5.6-2.4V3c-1.3-0.5-2.7-0.8-4.1-0.9h-1.5V12.4z"/>
		<path class="st0" d="M32.3,134.2c-1.6-1.1-3.1-2.2-4.6-3.5C29,132.1,30.6,133.3,32.3,134.2z"/>
		<path class="st0" d="M38.6,125.4l0.4,8.7c-1.6-0.2-3.2-0.5-4.7-1c-2.7-0.8-5.3-2.1-7.5-3.9c2.1,2.7,4.8,4.7,8,5.9
			c1.4,0.6,2.8,1,4.3,1.3c0.3,0.1,0.6,0.1,0.9,0.2l-0.5-10.8l-0.2-0.1L38.6,125.4z"/>
		<path class="st0" d="M39.3,125.7l0.2,0.1l0,0L39.3,125.7z"/>
		<path class="st0" d="M39.3,125.7l0.2,0.1l0,0L39.3,125.7z"/>
		<path class="st0" d="M26.8,129.3l-0.1-0.1c0.3,0.6,0.7,1.1,1.1,1.5c1.5,1.2,3,2.4,4.6,3.5c1.1,0.6,2.1,1,3.3,1.4
			c1.1,0.4,2.3,0.7,3.5,0.9c-1.5-0.3-2.9-0.7-4.3-1.3C31.6,134,28.8,131.9,26.8,129.3z"/>
		<path class="st0" d="M26.8,129.3l-0.1-0.1c0.3,0.6,0.7,1.1,1.1,1.5c1.5,1.2,3,2.4,4.6,3.5c1.1,0.6,2.1,1,3.3,1.4
			c1.1,0.4,2.3,0.7,3.5,0.9c-1.5-0.3-2.9-0.7-4.3-1.3C31.6,134,28.8,131.9,26.8,129.3z"/>
		<path class="st0" d="M25.8,125.7c-0.2,1.1,0,2.2,0.7,3.1c-0.3-0.6-0.4-1.3-0.3-2c0.7-2.9,6-3.5,11.9-1.5l0.4,0.2v-0.1
			c-0.3-0.1-0.5-0.3-0.8-0.4C32,122.6,26.7,122.9,25.8,125.7z"/>
		<path class="st0" d="M25.8,125.7c0.8-2.8,6.2-3.1,12-0.7c0.3,0.1,0.5,0.2,0.8,0.4l-0.1-2.1c-0.5-0.2-0.9-0.4-1.4-0.5
			c-6.4-2-12.2-1.3-12.9,1.6c-0.4,1.5,0.6,3.2,2.5,4.8c-0.1-0.1-0.1-0.3-0.2-0.4C25.8,127.9,25.6,126.8,25.8,125.7z"/>
		<path class="st0" d="M25.8,125.7c0.8-2.8,6.2-3.1,12-0.7c0.3,0.1,0.5,0.2,0.8,0.4l-0.1-2.1c-0.5-0.2-0.9-0.4-1.4-0.5
			c-6.4-2-12.2-1.3-12.9,1.6c-0.4,1.5,0.6,3.2,2.5,4.8c-0.1-0.1-0.1-0.3-0.2-0.4C25.8,127.9,25.6,126.8,25.8,125.7z"/>
		<path class="st0" d="M26.2,126.8c-0.1,0.7,0,1.4,0.3,2c0.1,0.2,0.2,0.3,0.3,0.5c2.2,1.8,4.8,3.1,7.5,3.9c1.5,0.5,3.1,0.8,4.7,1
			l-0.4-8.7l-0.4-0.2C32.3,123.2,26.9,123.9,26.2,126.8z"/>
		<path class="st0" d="M26.2,126.8c-0.1,0.7,0,1.4,0.3,2c0.1,0.2,0.2,0.3,0.3,0.5c2.2,1.8,4.8,3.1,7.5,3.9c1.5,0.5,3.1,0.8,4.7,1
			l-0.4-8.7l-0.4-0.2C32.3,123.2,26.9,123.9,26.2,126.8z"/>
		<path class="st0" d="M26.5,128.8c0,0.1,0.1,0.3,0.2,0.4l0.1,0.1C26.6,129.1,26.5,128.9,26.5,128.8z"/>
		<path class="st0" d="M26.5,128.8c0,0.1,0.1,0.3,0.2,0.4l0.1,0.1C26.6,129.1,26.5,128.9,26.5,128.8z"/>
		<path class="st0" d="M26.5,128.8c0,0.1,0.1,0.3,0.2,0.4l0.1,0.1C26.6,129.1,26.5,128.9,26.5,128.8z"/>
		<path class="st0" d="M46.7,134.4c0.4-1.4-0.4-3.2-2.1-4.9v6.8C45.6,136.1,46.4,135.4,46.7,134.4z"/>
		<path class="st0" d="M46.7,134.4c0.4-1.4-0.4-3.2-2.1-4.9v6.8C45.6,136.1,46.4,135.4,46.7,134.4z"/>
		<line class="st0" x1="32.3" y1="13.4" x2="56.5" y2="19.6"/>
		<line class="st0" x1="31.3" y1="114.7" x2="55.5" y2="120.9"/>
		<path class="st1" d="M546.8,133.8l0.2,0.2C546.9,133.9,546.8,133.9,546.8,133.8z"/>
		<path class="st1" d="M545.8,137h-0.4C545.6,137,545.7,137,545.8,137z"/>
		<path class="st0" d="M38.9,14.9L38,16c0.6-0.5,1.1-1.1,1.7-1.7c-0.1,0.1-0.3,0.1-0.4,0.1C39.1,14.6,39,14.7,38.9,14.9z"/>
		<path class="st0" d="M24,21.5c0.7,0,1.4,0,2.1-0.1h-4.2C22.6,21.5,23.3,21.5,24,21.5z"/>
		<path class="st0" d="M24,21.5c0.7,0,1.4,0,2.1-0.1h-4.2C22.6,21.5,23.3,21.5,24,21.5z"/>
		<polygon class="st0" points="39.7,14.2 38.1,15.9 38,15.7 39.3,14 		"/>
		<path class="st0" d="M49.9,18.6L49.9,18.6L49.9,18.6z"/>
		<path class="st0" d="M51.1,21.7L51.1,21.7z"/>
		<path class="st0" d="M52.6,19c-0.3-0.8-1.1-1.3-2-1c-0.1,0-0.1,0.1-0.2,0.1c-0.2,0.1-0.4,0.2-0.5,0.4l-0.1,0.1
			c-0.4,0.6-0.6,1.3-0.3,2c0.2,0.6,0.8,1.1,1.4,1.1h0.2c0.2,0,0.4-0.1,0.6-0.1C52.6,21,53,20,52.6,19z"/>
		<path class="st0" d="M80.8,21l-0.1,0.1L80.8,21z"/>
		<path class="st0" d="M79.7,21.7L79.7,21.7z"/>
		<path class="st0" d="M81,18.9c-0.2-0.8-1.1-1.3-2-1.1c-0.1,0-0.2,0.1-0.2,0.1c-0.8,0.6-1.1,1.7-0.7,2.6c0.2,0.7,0.8,1.1,1.5,1.2
			h0.1c0.2,0,0.4-0.1,0.6-0.2s0.3-0.2,0.4-0.4l0.1-0.1C81.2,20.4,81.2,19.6,81,18.9z"/>
	</g>
	<g id="Layer_2_1_">
		<path class="st2" d="M589.1,23.5c0-5.9,0.1-11.9,0-17.8c-0.1-3.3,1.2-5.1,5.3-4.8c0.2,0,0.5,0,0.7,0c22.8,0.3,18.3-2.4,18.7,15
			c0.2,8-0.1,16,0.3,23.9c0.2,4.1-1.6,5.2-6.2,5.3c-18.8,0.4-18.8,0.5-18.8-15.5V23.5z"/>
		<path class="st2" d="M625,1.1h21.8c0.4,0,0.8,0.3,0.8,0.8v133.3c0,0.4-0.3,0.8-0.8,0.8H625c-0.4,0-0.8-0.3-0.8-0.8V1.9
			C624.2,1.4,624.5,1.1,625,1.1z"/>
		<path class="st2" d="M593.5,109v26c0,0.4-0.3,0.8-0.8,0.8h-56.9c-0.4,0-0.8-0.3-0.8-0.8v-26c0-0.4,0.3-0.8,0.8-0.8h56.9
			C593.2,108.2,593.5,108.5,593.5,109z"/>
		<path class="st2" d="M598.8,31.3c-0.2,0-0.5,0-0.7,0c-6.9-1.3-9.3,1.9-9,10.3c0.5,14-4.9,19.7-16.9,19.8
			c-13.4,0.1-26.9-0.4-40.3,0.1c-6.9,0.3-8.8-3-8.6-10.6c0.4-13.8,0.1-27.7,0.3-41.5c-0.1,1.4-0.6,2.8-1.6,3.9
			c-2.2,2.3-5.9,1.7-8.2-1.4s-2.3-7.5-0.1-9.8c0.6-0.6,1.3-1,2.2-1.2c-14.1,0.4-28.2,0.3-42.2,0.5C451,1.8,435,20.2,434.9,45.9
			c0,25.3,16.5,44.1,39,44.4c10.8,0.1,10.8,0.1,10.8-12.8c0-14.8,0-14.8-12.3-16.2c-7.9-1-13.7-7.8-13.4-15.8
			c0.2-8.1,6.2-15.4,13.5-15.8c6.9-0.5,13.9-0.4,20.8,0.2c2,0.2,5.4,3.8,5.4,6c0.5,18.3,0.5,36.6,0.3,55
			c-0.1,8.8-5.3,15.1-12.3,16.1c-13.2,1.9-13.2,1.9-13.2,17.6c0.1,1.6,0.1,3.3,0,4.9c-0.5,4.8,1.4,6.1,5.1,6.4
			c23.6,2.2,39.9-11.9,44.5-39.2c0.8-4.7,2.6-6.5,6.5-6.5c8.1,0.1,16.2,0,24.3,0l0,0c7.9,0,15.8,0.3,23.6-0.1
			c18.1-0.9,33.5-17.7,35.8-38.9C615.4,31.9,614.9,31.3,598.8,31.3z"/>
		<path class="st2" d="M513.6,12c2.4,3.1,6.1,3.7,8.4,1.4c1-1.1,1.5-2.5,1.6-3.9c0-0.4,0-0.8,0-1.2c-0.1-1.7-0.7-3.3-1.7-4.7
			c-0.9-1.4-2.5-2.3-4.1-2.7h-2c-0.8,0.2-1.6,0.6-2.2,1.2C511.2,4.5,511.2,8.9,513.6,12z"/>
		<path class="st2" d="M403.6,1.1h21.8c0.4,0,0.8,0.3,0.8,0.8v133.3c0,0.4-0.3,0.8-0.8,0.8h-21.8c-0.4,0-0.8-0.3-0.8-0.8V1.9
			C402.8,1.4,403.1,1.1,403.6,1.1z"/>
	</g>
	<g>
		<polygon class="st0" points="302.4,3.5 261,136.8 226.4,136.8 219.4,114 209,80.2 204.8,66.3 201.9,56.9 192.6,26.7 192.6,26.6 
			192.5,26.3 185.5,3.5 220.1,3.5 220.2,3.7 225.9,26.7 233.4,56.9 236.4,68.9 244.3,100.7 244.6,100.7 269.3,3.5 		"/>
	</g>
	<g>
		<path class="st0" d="M332.6,28.1h0.3l11.6,46l2.6,9.6l6.1,22.7l4,14.8l0,0l4.2,15H394l-9.7-29.8l-7.4-22.7L350.6,2.5h-34.9
			l-44.9,133.7h30.4"/>
	</g>
	<polygon class="st2" points="383.8,105.2 317.2,105.2 318.5,102.1 318.6,102.1 326.9,82.9 327.1,82.4 376.7,82.4 	"/>
	<path class="st0" d="M148.6,2.6h26c0.4,0,0.8,0.3,0.8,0.7v132.6c0,0.4-0.3,0.7-0.8,0.7h-26c-0.4,0-0.8-0.3-0.8-0.7V3.5
		C147.8,3.1,148.2,2.6,148.6,2.6z"/>
</g>
</svg>
